<?xml version="1.0" encoding="UTF-8" standalone="no"?>
<svg
   xmlns:dc="http://purl.org/dc/elements/1.1/"
   xmlns:cc="http://creativecommons.org/ns#"
   xmlns:rdf="http://www.w3.org/1999/02/22-rdf-syntax-ns#"
   xmlns:svg="http://www.w3.org/2000/svg"
   xmlns="http://www.w3.org/2000/svg"
   viewBox="0 0 1188 269.33334"
   height="269.33334"
   width="1188"
   xml:space="preserve"
   id="svg2"
   version="1.1"><metadata
     id="metadata8"><rdf:RDF><cc:Work
         rdf:about=""><dc:format>image/svg+xml</dc:format><dc:type
           rdf:resource="http://purl.org/dc/dcmitype/StillImage" /></cc:Work></rdf:RDF></metadata><defs
     id="defs6"><clipPath
       id="clipPath24"
       clipPathUnits="userSpaceOnUse"><path
         id="path22"
         d="M 0,202 H 891 V 0 H 0 Z" /></clipPath></defs><g
     transform="matrix(1.3333333,0,0,-1.3333333,0,269.33333)"
     id="g10"><g
       transform="translate(293.124,189.8604)"
       id="g12"><path
         id="path14"
         style="fill:#000000;fill-opacity:1;fill-rule:nonzero;stroke:none"
         d="M 0,0 H -8.828 L -19.405,-28.142 -30.073,0 h -8.921 v -34.947 h 5.61 v 28.325 l 10.669,-28.325 h 6.437 L -5.61,-6.622 V -34.947 H 0 Z" /></g><path
       id="path16"
       style="fill:#000000;fill-opacity:1;fill-rule:nonzero;stroke:none"
       d="m 303.149,154.913 h 5.518 v 27.59 h -5.518 z m -0.276,31.453 h 6.07 v 5.518 h -6.07 z" /><g
       id="g18"><g
         clip-path="url(#clipPath24)"
         id="g20"><g
           transform="translate(332.6699,182.9629)"
           id="g26"><path
             id="path28"
             style="fill:#000000;fill-opacity:1;fill-rule:nonzero;stroke:none"
             d="m 0,0 c -4.138,0 -7.633,-1.839 -9.748,-4.782 l -0.368,4.323 h -4.783 V -28.05 h 5.518 v 15.819 c 0,4.414 3.495,7.541 7.818,7.541 3.77,0 6.069,-2.667 6.069,-7.357 V -28.05 h 5.518 v 17.474 C 10.024,-4.23 5.886,0 0,0" /></g><path
           id="path30"
           style="fill:#000000;fill-opacity:1;fill-rule:nonzero;stroke:none"
           d="m 351.339,154.913 h 5.518 v 27.59 h -5.518 z m -0.276,31.453 h 6.07 v 5.518 h -6.07 z" /><g
           transform="translate(374.9751,154.4531)"
           id="g32"><path
             id="path34"
             style="fill:#000000;fill-opacity:1;fill-rule:nonzero;stroke:none"
             d="m 0,0 c 6.897,0 11.22,3.219 11.22,8.277 0,4.323 -2.851,6.622 -10.393,8.553 -4.69,1.196 -6.161,2.115 -6.161,3.863 0,1.931 2.115,3.126 5.242,3.126 2.943,0 5.426,-1.011 7.633,-2.85 l 3.127,4.138 C 7.633,27.314 4.046,28.51 0.184,28.51 c -6.53,0 -10.852,-3.219 -10.852,-8.185 0,-4.231 2.851,-6.53 10.024,-8.369 5.058,-1.196 6.53,-2.207 6.53,-3.955 0,-2.115 -2.208,-3.218 -5.702,-3.218 -3.679,0 -6.714,1.195 -9.013,3.402 L -11.864,4.23 C -8.829,1.472 -4.691,0 0,0" /></g><g
           transform="translate(407.9912,177.813)"
           id="g36"><path
             id="path38"
             style="fill:#000000;fill-opacity:1;fill-rule:nonzero;stroke:none"
             d="m 0,0 v 4.69 h -8.461 v 7.357 h -4.782 L -13.979,4.69 h -5.426 V 0 h 5.426 v -15.634 c 0,-5.058 2.943,-7.726 8.369,-7.726 1.839,0 3.77,0.184 5.61,0.644 v 5.058 c -1.84,-0.46 -3.035,-0.551 -4.507,-0.551 -2.667,0 -3.954,0.827 -3.954,3.678 V 0 Z" /></g><g
           transform="translate(429.3271,182.9629)"
           id="g40"><path
             id="path42"
             style="fill:#000000;fill-opacity:1;fill-rule:nonzero;stroke:none"
             d="m 0,0 c -4.138,0 -7.633,-1.931 -9.656,-4.874 l -0.368,4.415 h -4.783 V -28.05 h 5.518 v 15.451 c 0,4.414 3.311,7.265 7.726,7.265 1.195,0 2.483,-0.092 3.678,-0.184 v 5.242 C 1.38,-0.092 0.736,0 0,0" /></g><g
           transform="translate(442.7539,149.855)"
           id="g44"><path
             id="path46"
             style="fill:#000000;fill-opacity:1;fill-rule:nonzero;stroke:none"
             d="m 0,0 c -1.839,0 -3.127,1.288 -3.127,3.219 0,0.827 0.184,1.563 0.644,2.207 H 4.415 L 3.863,3.771 C 3.035,1.379 1.656,0 0,0 M 13.243,32.648 6.162,9.84 H 3.955 l -8.001,22.808 h -6.07 L -1.195,9.84 H -5.15 C -6.989,8.001 -7.909,5.886 -7.909,3.403 c 0,-4.875 3.127,-8.001 7.725,-8.001 4.691,0 7.817,3.035 10.118,10.024 l 9.195,27.222 z" /></g><g
           transform="translate(265.166,88.5127)"
           id="g48"><path
             id="path50"
             style="fill:#000000;fill-opacity:1;fill-rule:nonzero;stroke:none"
             d="m 0,0 c -5.058,0 -8.369,3.771 -8.369,9.565 0,5.794 3.311,9.564 8.369,9.564 5.059,0 8.369,-3.77 8.369,-9.564 C 8.369,3.771 5.059,0 0,0 m 0,-4.689 c 8.277,0 13.979,5.793 13.979,14.254 C 13.979,18.21 8.461,23.82 0,23.82 -8.277,23.82 -13.978,18.026 -13.978,9.565 -13.978,0.92 -8.46,-4.689 0,-4.689" /></g><g
           transform="translate(296.251,117.0229)"
           id="g52"><path
             id="path54"
             style="fill:#000000;fill-opacity:1;fill-rule:nonzero;stroke:none"
             d="M 0,0 C 2.023,0 3.679,-0.644 5.15,-1.748 L 7.725,2.391 C 5.518,3.863 3.035,4.69 0.184,4.69 -5.334,4.69 -8.737,1.655 -8.737,-3.219 V -5.15 h -5.702 v -4.69 h 5.702 v -22.9 h 5.518 v 22.9 h 7.91 v 4.69 h -7.91 v 1.839 C -3.219,-1.288 -2.023,0 0,0" /></g><g
           transform="translate(334.7852,89.3408)"
           id="g56"><path
             id="path58"
             style="fill:#000000;fill-opacity:1;fill-rule:nonzero;stroke:none"
             d="M 0,0 H -6.989 V 24.831 H 0 c 7.082,0 11.312,-4.782 11.312,-12.416 C 11.312,4.782 7.082,0 0,0 M 0,29.889 H -12.783 V -5.058 H 0 c 10.852,0 17.29,7.173 17.29,17.473 0,10.577 -6.162,17.474 -17.29,17.474" /></g><path
           id="path60"
           style="fill:#000000;fill-opacity:1;fill-rule:nonzero;stroke:none"
           d="m 359.432,84.283 h 5.518 v 27.589 h -5.518 z m -0.276,31.452 h 6.07 v 5.518 h -6.07 z" /><g
           transform="translate(385.5508,89.9854)"
           id="g62"><path
             id="path64"
             style="fill:#000000;fill-opacity:1;fill-rule:nonzero;stroke:none"
             d="m 0,0 c -4.782,0 -7.909,3.401 -7.909,8.828 0,5.334 3.127,8.829 7.909,8.829 4.874,0 8.001,-3.495 8.001,-8.829 C 8.001,3.401 4.874,0 0,0 M 8.369,21.887 8.001,17.933 c -2.115,2.759 -5.426,4.414 -9.473,4.414 -7.081,0 -12.047,-5.426 -12.047,-13.427 0,-8.094 4.782,-13.428 12.047,-13.428 3.955,0 7.174,1.656 9.381,4.415 V -2.76 c 0,-4.415 -2.207,-7.909 -8.369,-7.909 -3.495,0 -5.978,0.827 -8.185,3.127 l -2.943,-3.862 c 2.483,-2.484 6.162,-3.955 11.22,-3.955 8.461,0 13.427,5.15 13.427,12.507 l 0.092,24.739 z" /></g><path
           id="path66"
           style="fill:#000000;fill-opacity:1;fill-rule:nonzero;stroke:none"
           d="m 407.807,84.283 h 5.518 v 27.589 h -5.518 z m -0.276,31.452 h 6.07 v 5.518 h -6.07 z" /><g
           transform="translate(438.708,107.1826)"
           id="g68"><path
             id="path70"
             style="fill:#000000;fill-opacity:1;fill-rule:nonzero;stroke:none"
             d="m 0,0 v 4.69 h -8.461 v 7.357 h -4.783 L -13.979,4.69 h -5.426 V 0 h 5.426 v -15.635 c 0,-5.057 2.943,-7.724 8.369,-7.724 1.839,0 3.77,0.183 5.61,0.643 v 5.059 c -1.84,-0.46 -3.035,-0.553 -4.507,-0.553 -2.667,0 -3.954,0.828 -3.954,3.68 V 0 Z" /></g><g
           transform="translate(452.043,88.3291)"
           id="g72"><path
             id="path74"
             style="fill:#000000;fill-opacity:1;fill-rule:nonzero;stroke:none"
             d="m 0,0 c -2.851,0 -4.507,1.38 -4.507,3.955 0,3.587 3.587,4.138 7.082,4.69 2.667,0.459 4.322,0.736 5.334,1.379 V 6.437 C 7.909,2.943 4.23,0 0,0 m 14.99,0.736 c -1.195,0 -1.747,0.552 -1.747,1.746 v 12.417 c 0,5.702 -4.046,9.104 -10.668,9.104 -4.782,0 -8.737,-1.655 -11.956,-4.69 l 3.403,-3.586 c 2.207,2.298 5.15,3.678 8.277,3.678 3.495,0 5.794,-1.471 5.794,-3.678 0,-2.116 -2.023,-2.484 -6.162,-3.035 -5.334,-0.828 -11.864,-2.3 -11.864,-9.105 0,-4.782 3.587,-8.093 9.013,-8.093 4.047,0 7.725,1.839 9.657,4.69 0.368,-3.219 1.931,-4.414 5.334,-4.414 0.919,0 1.655,0.092 1.931,0.184 v 4.782 z" /></g><path
           id="path76"
           style="fill:#000000;fill-opacity:1;fill-rule:nonzero;stroke:none"
           d="m 474.207,84.283 h 5.518 v 36.786 h -5.518 z" /><g
           transform="translate(530.3994,119.23)"
           id="g78"><path
             id="path80"
             style="fill:#000000;fill-opacity:1;fill-rule:nonzero;stroke:none"
             d="m 0,0 h -30.718 v -5.334 h 12.415 v -29.613 h 5.887 v 29.613 l 12.416,0 z" /></g><g
           transform="translate(545.8486,112.3325)"
           id="g82"><path
             id="path84"
             style="fill:#000000;fill-opacity:1;fill-rule:nonzero;stroke:none"
             d="m 0,0 c -4.139,0 -7.633,-1.931 -9.656,-4.874 l -0.367,4.414 h -4.784 v -27.589 h 5.518 v 15.45 c 0,4.414 3.311,7.265 7.727,7.265 1.195,0 2.482,-0.092 3.677,-0.184 v 5.242 C 1.38,-0.092 0.736,0 0,0" /></g><g
           transform="translate(559.6436,88.3291)"
           id="g86"><path
             id="path88"
             style="fill:#000000;fill-opacity:1;fill-rule:nonzero;stroke:none"
             d="m 0,0 c -2.851,0 -4.506,1.38 -4.506,3.955 0,3.587 3.586,4.138 7.081,4.69 2.667,0.459 4.322,0.736 5.334,1.379 V 6.437 C 7.909,2.943 4.23,0 0,0 m 14.991,0.736 c -1.195,0 -1.748,0.552 -1.748,1.746 v 12.417 c 0,5.702 -4.046,9.104 -10.668,9.104 -4.781,0 -8.736,-1.655 -11.956,-4.69 l 3.403,-3.586 c 2.207,2.298 5.151,3.678 8.278,3.678 3.494,0 5.794,-1.471 5.794,-3.678 0,-2.116 -2.024,-2.484 -6.162,-3.035 -5.334,-0.828 -11.864,-2.3 -11.864,-9.105 0,-4.782 3.586,-8.093 9.012,-8.093 4.048,0 7.726,1.839 9.657,4.69 0.368,-3.219 1.932,-4.414 5.334,-4.414 0.92,0 1.656,0.092 1.932,0.184 v 4.782 z" /></g><g
           transform="translate(596.707,112.3325)"
           id="g90"><path
             id="path92"
             style="fill:#000000;fill-opacity:1;fill-rule:nonzero;stroke:none"
             d="m 0,0 c -4.139,0 -7.634,-1.839 -9.749,-4.782 l -0.368,4.322 h -4.782 v -27.589 h 5.518 v 15.818 c 0,4.414 3.495,7.541 7.817,7.541 3.771,0 6.07,-2.667 6.07,-7.357 v -16.002 h 5.518 v 17.472 C 10.024,-4.23 5.885,0 0,0" /></g><g
           transform="translate(623.9287,83.8232)"
           id="g94"><path
             id="path96"
             style="fill:#000000;fill-opacity:1;fill-rule:nonzero;stroke:none"
             d="m 0,0 c 6.897,0 11.221,3.219 11.221,8.276 0,4.323 -2.852,6.621 -10.394,8.554 -4.689,1.195 -6.161,2.115 -6.161,3.862 0,1.932 2.115,3.127 5.242,3.127 2.944,0 5.426,-1.012 7.633,-2.851 l 3.127,4.138 c -3.034,2.208 -6.622,3.403 -10.483,3.403 -6.531,0 -10.853,-3.218 -10.853,-8.185 0,-4.23 2.852,-6.529 10.024,-8.368 5.058,-1.196 6.531,-2.208 6.531,-3.955 0,-2.115 -2.208,-3.219 -5.702,-3.219 -3.68,0 -6.714,1.196 -9.014,3.403 L -11.863,4.229 C -8.829,1.471 -4.69,0 0,0" /></g><g
           transform="translate(652.0713,117.0229)"
           id="g98"><path
             id="path100"
             style="fill:#000000;fill-opacity:1;fill-rule:nonzero;stroke:none"
             d="M 0,0 C 2.022,0 3.678,-0.644 5.149,-1.748 L 7.725,2.391 C 5.518,3.863 3.034,4.69 0.183,4.69 c -5.518,0 -8.92,-3.035 -8.92,-7.909 V -5.15 h -5.702 v -4.69 h 5.702 v -22.9 h 5.517 v 22.9 h 7.909 v 4.69 H -3.22 v 1.839 C -3.22,-1.288 -2.024,0 0,0" /></g><g
           transform="translate(672.7627,88.5127)"
           id="g102"><path
             id="path104"
             style="fill:#000000;fill-opacity:1;fill-rule:nonzero;stroke:none"
             d="m 0,0 c -5.058,0 -8.369,3.771 -8.369,9.565 0,5.794 3.311,9.564 8.369,9.564 5.059,0 8.369,-3.77 8.369,-9.564 C 8.369,3.771 5.059,0 0,0 m 0,-4.689 c 8.277,0 13.979,5.793 13.979,14.254 C 13.979,18.21 8.461,23.82 0,23.82 -8.276,23.82 -13.979,18.026 -13.979,9.565 -13.979,0.92 -8.461,-4.689 0,-4.689" /></g><g
           transform="translate(708.1699,112.3325)"
           id="g106"><path
             id="path108"
             style="fill:#000000;fill-opacity:1;fill-rule:nonzero;stroke:none"
             d="m 0,0 c -4.138,0 -7.633,-1.931 -9.656,-4.874 l -0.367,4.414 h -4.783 v -27.589 h 5.518 v 15.45 c 0,4.414 3.31,7.265 7.726,7.265 1.194,0 2.482,-0.092 3.677,-0.184 v 5.242 C 1.38,-0.092 0.736,0 0,0" /></g><g
           transform="translate(748.5439,112.3325)"
           id="g110"><path
             id="path112"
             style="fill:#000000;fill-opacity:1;fill-rule:nonzero;stroke:none"
             d="M 0,0 C -4.323,0 -7.909,-2.115 -9.841,-5.334 -11.404,-2.023 -14.438,0 -18.578,0 c -4.046,0 -7.357,-1.748 -9.288,-4.598 l -0.368,4.138 h -4.782 v -27.589 h 5.518 v 15.818 c 0,4.414 3.126,7.541 7.357,7.541 3.863,0 5.794,-2.667 5.794,-7.357 v -16.002 h 5.518 v 15.818 c 0,4.414 3.127,7.541 7.357,7.541 3.771,0 5.794,-2.667 5.794,-7.357 V -28.049 H 9.84 v 17.472 C 9.84,-4.23 5.978,0 0,0" /></g><g
           transform="translate(774.0176,88.3291)"
           id="g114"><path
             id="path116"
             style="fill:#000000;fill-opacity:1;fill-rule:nonzero;stroke:none"
             d="m 0,0 c -2.851,0 -4.506,1.38 -4.506,3.955 0,3.587 3.587,4.138 7.082,4.69 2.667,0.459 4.322,0.736 5.334,1.379 V 6.437 C 7.91,2.943 4.231,0 0,0 m 14.991,0.736 c -1.196,0 -1.747,0.552 -1.747,1.746 v 12.417 c 0,5.702 -4.047,9.104 -10.668,9.104 -4.783,0 -8.736,-1.655 -11.956,-4.69 l 3.403,-3.586 c 2.207,2.298 5.151,3.678 8.278,3.678 3.494,0 5.794,-1.471 5.794,-3.678 0,-2.116 -2.025,-2.484 -6.162,-3.035 -5.334,-0.828 -11.865,-2.3 -11.865,-9.105 0,-4.782 3.587,-8.093 9.013,-8.093 4.046,0 7.726,1.839 9.656,4.69 0.368,-3.219 1.933,-4.414 5.334,-4.414 0.92,0 1.657,0.092 1.933,0.184 v 4.782 z" /></g><g
           transform="translate(811.9092,107.1826)"
           id="g118"><path
             id="path120"
             style="fill:#000000;fill-opacity:1;fill-rule:nonzero;stroke:none"
             d="m 0,0 v 4.69 h -8.461 v 7.357 h -4.782 L -13.979,4.69 h -5.426 V 0 h 5.426 v -15.635 c 0,-5.057 2.943,-7.724 8.369,-7.724 1.839,0 3.77,0.183 5.61,0.643 v 5.059 c -1.84,-0.46 -3.035,-0.553 -4.507,-0.553 -2.667,0 -3.954,0.828 -3.954,3.68 V 0 Z" /></g><path
           id="path122"
           style="fill:#000000;fill-opacity:1;fill-rule:nonzero;stroke:none"
           d="m 818.898,84.283 h 5.518 v 27.589 h -5.518 z m -0.276,31.452 h 6.07 v 5.518 h -6.07 z" /><g
           transform="translate(845.4766,88.5127)"
           id="g124"><path
             id="path126"
             style="fill:#000000;fill-opacity:1;fill-rule:nonzero;stroke:none"
             d="m 0,0 c -5.059,0 -8.368,3.771 -8.368,9.565 0,5.794 3.309,9.564 8.368,9.564 5.059,0 8.369,-3.77 8.369,-9.564 C 8.369,3.771 5.059,0 0,0 m 0,-4.689 c 8.277,0 13.979,5.793 13.979,14.254 C 13.979,18.21 8.461,23.82 0,23.82 -8.276,23.82 -13.979,18.026 -13.979,9.565 -13.979,0.92 -8.461,-4.689 0,-4.689" /></g><g
           transform="translate(880.9756,112.3325)"
           id="g128"><path
             id="path130"
             style="fill:#000000;fill-opacity:1;fill-rule:nonzero;stroke:none"
             d="m 0,0 c -4.139,0 -7.633,-1.839 -9.749,-4.782 l -0.367,4.322 h -4.782 v -27.589 h 5.517 v 15.818 c 0,4.414 3.495,7.541 7.818,7.541 3.77,0 6.07,-2.667 6.07,-7.357 v -16.002 h 5.517 v 17.472 C 10.024,-4.23 5.887,0 0,0" /></g><g
           transform="translate(265.166,17.8828)"
           id="g132"><path
             id="path134"
             style="fill:#000000;fill-opacity:1;fill-rule:nonzero;stroke:none"
             d="m 0,0 c -5.058,0 -8.369,3.771 -8.369,9.564 0,5.794 3.311,9.565 8.369,9.565 5.059,0 8.369,-3.771 8.369,-9.565 C 8.369,3.771 5.059,0 0,0 m 0,-4.69 c 8.277,0 13.979,5.794 13.979,14.254 0,8.645 -5.518,14.255 -13.979,14.255 -8.277,0 -13.978,-5.794 -13.978,-14.255 C -13.978,0.919 -8.46,-4.69 0,-4.69" /></g><g
           transform="translate(296.251,46.3916)"
           id="g136"><path
             id="path138"
             style="fill:#000000;fill-opacity:1;fill-rule:nonzero;stroke:none"
             d="m 0,0 c 2.023,0 3.679,-0.643 5.15,-1.747 l 2.575,4.14 c -2.207,1.47 -4.69,2.298 -7.541,2.298 -5.518,0 -8.921,-3.035 -8.921,-7.909 v -1.931 h -5.702 V -9.84 h 5.702 v -22.899 h 5.518 V -9.84 h 7.91 v 4.691 h -7.91 V -3.31 C -3.219,-1.286 -2.023,0 0,0" /></g><g
           transform="translate(336.2568,13.1924)"
           id="g140"><path
             id="path142"
             style="fill:#000000;fill-opacity:1;fill-rule:nonzero;stroke:none"
             d="M 0,0 C 9.012,0 14.714,5.609 14.714,14.255 V 35.407 H 8.921 V 14.347 C 8.921,8.645 5.518,5.15 0,5.15 c -5.518,0 -8.921,3.495 -8.921,9.197 v 21.06 h -5.794 V 14.255 C -14.715,5.609 -9.013,0 0,0" /></g><g
           transform="translate(383.0679,18.5264)"
           id="g144"><path
             id="path146"
             style="fill:#000000;fill-opacity:1;fill-rule:nonzero;stroke:none"
             d="m 0,0 c -0.828,0 -1.38,0.552 -1.38,1.38 v 10.116 h -5.058 l 6.99,11.22 h -5.886 l -6.53,-10.945 h -5.61 v 20.142 h -5.518 V -4.874 h 5.518 V 6.714 h 10.668 v -6.53 c 0,-3.31 1.932,-5.058 5.334,-5.058 h 2.483 l 0,4.874 z" /></g><g
           transform="translate(405.3242,41.7021)"
           id="g148"><path
             id="path150"
             style="fill:#000000;fill-opacity:1;fill-rule:nonzero;stroke:none"
             d="m 0,0 c -4.139,0 -7.633,-1.931 -9.657,-4.874 l -0.368,4.414 h -4.782 v -27.59 h 5.518 v 15.45 c 0,4.414 3.311,7.266 7.725,7.266 1.196,0 2.483,-0.092 3.679,-0.185 v 5.243 C 1.379,-0.092 0.735,0 0,0" /></g><g
           transform="translate(419.1191,17.6992)"
           id="g152"><path
             id="path154"
             style="fill:#000000;fill-opacity:1;fill-rule:nonzero;stroke:none"
             d="m 0,0 c -2.851,0 -4.507,1.379 -4.507,3.954 0,3.587 3.587,4.139 7.082,4.691 2.667,0.459 4.322,0.735 5.334,1.378 V 6.437 C 7.909,2.942 4.23,0 0,0 m 14.99,0.735 c -1.195,0 -1.747,0.552 -1.747,1.747 v 12.415 c 0,5.703 -4.047,9.106 -10.668,9.106 -4.782,0 -8.737,-1.655 -11.956,-4.691 l 3.403,-3.586 c 2.207,2.298 5.15,3.678 8.277,3.678 3.495,0 5.794,-1.471 5.794,-3.678 0,-2.116 -2.023,-2.483 -6.162,-3.036 -5.334,-0.828 -11.864,-2.298 -11.864,-9.104 0,-4.782 3.587,-8.093 9.013,-8.093 4.047,0 7.725,1.84 9.657,4.691 0.367,-3.219 1.931,-4.415 5.334,-4.415 0.919,0 1.655,0.091 1.931,0.184 v 4.782 z" /></g><path
           id="path156"
           style="fill:#000000;fill-opacity:1;fill-rule:nonzero;stroke:none"
           d="m 441.743,13.652 h 5.518 v 27.59 h -5.518 z m -0.276,31.453 h 6.069 v 5.518 h -6.069 z" /><g
           transform="translate(471.2637,41.7021)"
           id="g158"><path
             id="path160"
             style="fill:#000000;fill-opacity:1;fill-rule:nonzero;stroke:none"
             d="m 0,0 c -4.139,0 -7.633,-1.839 -9.749,-4.782 l -0.366,4.322 h -4.783 v -27.59 h 5.517 v 15.819 c 0,4.414 3.495,7.541 7.818,7.541 3.77,0 6.069,-2.667 6.069,-7.358 V -28.05 h 5.518 v 17.474 C 10.024,-4.23 5.887,0 0,0" /></g><g
           transform="translate(501.0605,37.1035)"
           id="g162"><path
             id="path164"
             style="fill:#000000;fill-opacity:1;fill-rule:nonzero;stroke:none"
             d="M 0,0 C 4.14,0 6.99,-2.667 7.726,-7.174 H -8.001 C -7.173,-2.759 -4.321,0 0,0 m -8.093,-11.403 h 21.244 c 0.185,0.643 0.185,1.102 0.185,1.747 0,8.644 -5.242,14.255 -13.336,14.255 -8.093,0 -13.61,-5.794 -13.61,-14.255 0,-8.186 4.965,-14.255 14.071,-14.255 5.794,0 9.655,2.208 11.955,4.967 l -3.77,3.309 c -1.564,-2.022 -4.138,-3.586 -8.185,-3.586 -4.874,0 -7.909,3.035 -8.554,7.818" /></g><g
           transform="translate(185.7378,185.9731)"
           id="g166"><path
             id="path168"
             style="fill:#000000;fill-opacity:1;fill-rule:evenodd;stroke:none"
             d="m 0,0 c 16.063,-16.064 16.063,-40.617 16.063,-84.855 0,-44.239 0,-68.792 -16.063,-84.856 -16.064,-16.063 -40.653,-16.063 -84.856,-16.063 -44.202,0 -68.791,0 -84.818,16.063 -16.064,16.064 -16.064,40.653 -16.064,84.856 0,44.202 0,68.791 16.064,84.818 16.027,16.064 40.58,16.064 84.818,16.064 44.239,0 68.792,0 84.856,-16.027 m -167.293,-2.412 -0.006,-0.006 c -7.337,-7.32 -11.156,-16.687 -13.103,-29.951 -1.964,-13.377 -1.973,-30.29 -1.973,-52.486 0,-22.197 0.009,-39.11 1.973,-52.492 1.947,-13.268 5.767,-22.646 13.106,-29.986 l 0.003,-0.002 c 7.32,-7.337 16.688,-11.156 29.951,-13.104 13.377,-1.964 30.29,-1.973 52.486,-1.973 22.197,0 39.11,0.009 52.492,1.973 13.268,1.948 22.646,5.767 29.985,13.106 7.34,7.34 11.159,16.709 13.107,29.973 1.964,13.377 1.972,30.289 1.972,52.505 0,22.215 -0.008,39.127 -1.972,52.504 C 8.78,-19.088 4.961,-9.718 -2.379,-2.378 -9.718,4.943 -19.087,8.753 -32.35,10.696 c -13.377,1.959 -30.29,1.968 -52.506,1.968 -22.215,0 -39.127,-0.009 -52.499,-1.973 -13.259,-1.947 -22.618,-5.766 -29.938,-13.103" /></g><g
           transform="translate(135.7842,94.5117)"
           id="g170"><path
             id="path172"
             style="fill:#000000;fill-opacity:1;fill-rule:nonzero;stroke:none"
             d="M 0,0 V 51.466 C -4.53,46.21 -7.792,39.687 -8.517,32.348 L -11.326,8.971 C -7.792,6.977 -5.074,3.715 -4.077,-0.09 H 0 Z m 0,-27.815 v 20.839 h -3.986 c -1.269,-4.802 -4.984,-8.517 -9.786,-10.058 l -3.262,-0.725 c 0.725,-3.262 1.269,-6.522 1.269,-10.056 z m -23.648,-7.068 h -7.793 v -14.86 c 3.806,4.349 6.524,9.332 7.793,14.86 m 0.996,7.068 c 0,2.989 -0.543,5.798 -1.268,8.516 -4.259,-0.544 -7.521,-4.259 -7.521,-8.516 z m -4.802,14.768 c -2.99,5.527 -5.799,11.326 -7.52,17.307 -1.722,-6.072 -4.531,-11.78 -7.521,-17.307 2.99,-0.724 5.527,-2.718 7.521,-4.982 1.993,2.264 4.53,4.258 7.52,4.982 M -38.508,-34.883 H -46.3 c 1.268,-5.528 3.987,-10.511 7.792,-14.86 z m 0,7.068 c 0,4.257 -3.262,8.063 -7.521,8.516 -0.724,-2.718 -1.268,-5.527 -1.268,-8.516 z m -15.494,0 c 0,3.534 0.544,6.794 1.269,10.056 l -3.263,0.725 c -4.801,1.541 -8.517,5.256 -9.785,10.058 h -3.987 V -27.815 Z M -65.872,0 c 0.997,3.807 3.806,7.068 7.249,9.062 l -2.809,23.376 c -0.997,7.249 -3.986,13.772 -8.517,19.119 V 0.091 h 4.077 z m 26.639,-58.26 c -7.248,5.528 -12.595,13.773 -14.316,23.377 H -76.926 V 66.144 c 12.595,-6.251 21.565,-20.115 22.652,-34.431 l 3.534,-28.359 -1.722,0.271 c -3.805,0 -7.067,-3.534 -7.067,-7.067 0,-3.263 2.537,-6.071 5.799,-6.795 l 4.258,-0.997 c 7.068,13.318 11.055,26.366 11.055,39.233 0,11.597 -1.541,23.105 -1.722,34.883 0,5.256 1.993,10.058 5.255,13.773 3.262,-3.806 5.256,-8.517 5.256,-13.773 0,-11.778 -1.722,-23.376 -1.722,-34.883 0,-12.776 3.987,-25.915 11.054,-39.233 l 4.259,0.997 c 3.262,0.724 5.799,3.532 5.799,6.795 0,3.533 -3.262,7.067 -7.068,7.067 l -1.721,-0.271 3.533,28.359 c 1.722,14.316 10.058,28.18 22.652,34.431 V -34.883 h -23.376 c -1.722,-9.513 -6.796,-18.122 -14.316,-23.377 -1.722,-1.268 -3.262,-2.808 -4.259,-4.802 -1.178,2.083 -2.719,3.534 -4.44,4.802" /></g></g></g></g></svg>