<svg width="142" height="35" viewBox="0 0 142 35" fill="none" xmlns="http://www.w3.org/2000/svg">
<g clip-path="url(#clip0_1748_264)">
<path d="M49.8936 16.903C49.8936 29.2707 42.5312 34.3697 24.9463 34.3697C7.36142 34.3697 0 29.2707 0 16.903V1.14294H17.1945V18.1573C17.1945 21.6678 20.3002 24.2879 24.9473 24.2879C29.5943 24.2879 32.7 21.6678 32.7 18.1573V1.14294H49.8946V16.903H49.8936ZM141.358 18.7768V28.3285H134.755V33.9615H119.713V28.3285H94.8889V18.6952L112.703 1.14294H134.756V18.7768H141.359H141.358ZM119.713 9.3884L110.216 18.7768H119.713V9.3884ZM94.7556 11.4294C94.7556 3.63242 87.867 0 73.3552 0C57.702 0 51.0983 4.16355 51.0983 14.1234H65.6504C65.6504 10.6946 68.055 9.47004 72.8248 9.47004C77.5946 9.47004 78.9393 10.2864 78.9393 11.5513C78.9393 13.2254 78.4099 13.2254 66.7103 15.9598C53.7475 19.0208 49.7123 25.062 49.7123 30.8996V33.9606H93.6957V24.6951H67.9744C69.5234 23.2256 73.9259 22.8174 83.6679 20.9397C90.1488 19.7152 94.7556 17.4706 94.7556 11.4294Z" fill="black"/>
</g>
<defs>
<clipPath id="clip0_1748_264">
<rect width="141.359" height="34.3697" fill="white"/>
</clipPath>
</defs>
</svg>
